<svg viewBox="0 0 16 17" fill="none" xmlns="http://www.w3.org/2000/svg">
<path fill-rule="evenodd" clip-rule="evenodd" d="M11.8047 4.69526C12.0651 4.95561 12.0651 5.37772 11.8047 5.63807L5.13807 12.3047C4.87772 12.5651 4.45561 12.5651 4.19526 12.3047C3.93491 12.0444 3.93491 11.6223 4.19526 11.3619L10.8619 4.69526C11.1223 4.43491 11.5444 4.43491 11.8047 4.69526Z" fill="#191C1E"/>
<path fill-rule="evenodd" clip-rule="evenodd" d="M4 5.16667C4 4.79848 4.29848 4.5 4.66667 4.5H11.3333C11.7015 4.5 12 4.79848 12 5.16667V11.8333C12 12.2015 11.7015 12.5 11.3333 12.5C10.9651 12.5 10.6667 12.2015 10.6667 11.8333V5.83333H4.66667C4.29848 5.83333 4 5.53486 4 5.16667Z" fill="#191C1E"/>
</svg>
