<svg viewBox="0 0 16 17" fill="none" xmlns="http://www.w3.org/2000/svg">
<path fill-rule="evenodd" clip-rule="evenodd" d="M11.8047 4.69532C12.0651 4.95567 12.0651 5.37778 11.8047 5.63813L5.13807 12.3048C4.87772 12.5651 4.45561 12.5651 4.19526 12.3048C3.93491 12.0444 3.93491 11.6223 4.19526 11.362L10.8619 4.69532C11.1223 4.43497 11.5444 4.43497 11.8047 4.69532Z" fill="black"/>
<path fill-rule="evenodd" clip-rule="evenodd" d="M4.66667 4.50006C5.03486 4.50006 5.33333 4.79854 5.33333 5.16673V11.1667H11.3333C11.7015 11.1667 12 11.4652 12 11.8334C12 12.2016 11.7015 12.5001 11.3333 12.5001H4.66667C4.29848 12.5001 4 12.2016 4 11.8334V5.16673C4 4.79854 4.29848 4.50006 4.66667 4.50006Z" fill="black"/>
</svg>
