<svg viewBox="0 0 14 14" fill="none" xmlns="http://www.w3.org/2000/svg">
<path fill-rule="evenodd" clip-rule="evenodd" d="M12.25 7.96085C12.5722 7.96085 12.8334 8.22201 12.8334 8.54418V11.0834C12.8334 12.0499 12.0499 12.8334 11.0834 12.8334H2.91671C1.95021 12.8334 1.16671 12.0499 1.16671 11.0834V2.91673C1.16671 1.95023 1.95021 1.16673 2.91671 1.16673L5.45592 1.16673C5.77809 1.16673 6.03926 1.4279 6.03926 1.75006C6.03926 2.07223 5.77809 2.33339 5.45592 2.33339L2.91671 2.33339C2.59454 2.33339 2.33337 2.59456 2.33337 2.91673V11.0834C2.33337 11.4056 2.59454 11.6667 2.91671 11.6667H11.0834C11.4055 11.6667 11.6667 11.4056 11.6667 11.0834V8.54418C11.6667 8.22201 11.9279 7.96085 12.25 7.96085Z" fill="#989898"/>
<path fill-rule="evenodd" clip-rule="evenodd" d="M8.75 1.75006C8.75 1.4279 9.01117 1.16673 9.33333 1.16673H12.25C12.5722 1.16673 12.8333 1.4279 12.8333 1.75006V4.66673C12.8333 4.98889 12.5722 5.25006 12.25 5.25006C11.9278 5.25006 11.6667 4.98889 11.6667 4.66673V2.33339H9.33333C9.01117 2.33339 8.75 2.07223 8.75 1.75006Z" fill="#989898"/>
<path fill-rule="evenodd" clip-rule="evenodd" d="M12.3831 1.64193C12.6039 1.87653 12.5927 2.24571 12.3581 2.46651L7.39975 7.13318C7.16515 7.35398 6.79598 7.34279 6.57517 7.10819C6.35437 6.87359 6.36556 6.50441 6.60016 6.28361L11.5585 1.61694C11.7931 1.39614 12.1623 1.40733 12.3831 1.64193Z" fill="#989898"/>
</svg>
