<svg viewBox="0 0 16 17" fill="none" xmlns="http://www.w3.org/2000/svg">
<path fill-rule="evenodd" clip-rule="evenodd" d="M9.52859 3.36199C9.78894 3.10164 10.2111 3.10164 10.4714 3.36199L13.1381 6.02865C13.3287 6.21932 13.3858 6.50606 13.2826 6.75518C13.1794 7.0043 12.9363 7.16673 12.6667 7.16673H2.99999C2.63181 7.16673 2.33333 6.86825 2.33333 6.50006C2.33333 6.13187 2.63181 5.83339 2.99999 5.83339H11.0572L9.52859 4.3048C9.26824 4.04445 9.26824 3.62234 9.52859 3.36199Z" fill="#191C1E"/>
<path fill-rule="evenodd" clip-rule="evenodd" d="M6.49827 13.6096C6.25366 13.8848 5.83227 13.9096 5.55709 13.665L2.55709 10.9983C2.35021 10.8144 2.27848 10.5219 2.37685 10.2631C2.47521 10.0044 2.72321 9.8334 2.99999 9.8334H12.6667C13.0349 9.8334 13.3333 10.1319 13.3333 10.5001C13.3333 10.8683 13.0349 11.1667 12.6667 11.1667H4.75346L6.4429 12.6685C6.71809 12.9131 6.74288 13.3345 6.49827 13.6096Z" fill="#191C1E"/>
</svg>
