<svg width="25" height="24" viewBox="0 0 25 24" fill="none" xmlns="http://www.w3.org/2000/svg">
<g clip-path="url(#clip0_724_2894)">
<path fill-rule="evenodd" clip-rule="evenodd" d="M0.833435 12C0.833435 5.81446 6.05678 0.800049 12.5001 0.800049C18.9434 0.800049 24.1668 5.81446 24.1668 12C24.1668 18.1856 18.9434 23.2001 12.5001 23.2001C6.05678 23.2001 0.833435 18.1856 0.833435 12ZM17.0301 10.3526C17.518 9.88376 17.5176 9.12396 17.0292 8.65556C16.5408 8.18717 15.7494 8.18755 15.2614 8.65641L10.4162 13.3125L9.11203 12.0606C8.62388 11.5919 7.83242 11.5919 7.34427 12.0606C6.85611 12.5292 6.85611 13.289 7.34427 13.7576L9.53272 15.8585C9.76722 16.0837 10.0853 16.2101 10.4169 16.21C10.7485 16.2099 11.0666 16.0833 11.3009 15.8581L17.0301 10.3526Z" fill="black"/>
</g>
<defs>
<clipPath id="clip0_724_2894">
<rect width="25" height="24" fill="white"/>
</clipPath>
</defs>
</svg>
