<svg viewBox="0 0 12 13" fill="none" xmlns="http://www.w3.org/2000/svg">
<path fill-rule="evenodd" clip-rule="evenodd" d="M6 2C3.51472 2 1.5 4.01472 1.5 6.5C1.5 8.98528 3.51472 11 6 11C8.48528 11 10.5 8.98528 10.5 6.5C10.5 4.01472 8.48528 2 6 2ZM0.5 6.5C0.5 3.46243 2.96243 1 6 1C9.03757 1 11.5 3.46243 11.5 6.5C11.5 9.53757 9.03757 12 6 12C2.96243 12 0.5 9.53757 0.5 6.5Z" fill="#FF9393"/>
<path fill-rule="evenodd" clip-rule="evenodd" d="M7.85355 4.64645C8.04882 4.84171 8.04882 5.15829 7.85355 5.35355L4.85355 8.35355C4.65829 8.54882 4.34171 8.54882 4.14645 8.35355C3.95118 8.15829 3.95118 7.84171 4.14645 7.64645L7.14645 4.64645C7.34171 4.45118 7.65829 4.45118 7.85355 4.64645Z" fill="#FF9393"/>
<path fill-rule="evenodd" clip-rule="evenodd" d="M4.14645 4.64645C4.34171 4.45118 4.65829 4.45118 4.85355 4.64645L7.85355 7.64645C8.04882 7.84171 8.04882 8.15829 7.85355 8.35355C7.65829 8.54882 7.34171 8.54882 7.14645 8.35355L4.14645 5.35355C3.95118 5.15829 3.95118 4.84171 4.14645 4.64645Z" fill="#FF9393"/>
</svg>
