<svg viewBox="0 0 14 14" fill="none" xmlns="http://www.w3.org/2000/svg">
<g clip-path="url(#clip0_597_566)">
<path fill-rule="evenodd" clip-rule="evenodd" d="M6.99992 1.75006C4.10042 1.75006 1.74992 4.10056 1.74992 7.00006C1.74992 9.89955 4.10042 12.2501 6.99992 12.2501C9.89941 12.2501 12.2499 9.89955 12.2499 7.00006C12.2499 4.10056 9.89941 1.75006 6.99992 1.75006ZM0.583252 7.00006C0.583252 3.45623 3.45609 0.583389 6.99992 0.583389C10.5437 0.583389 13.4166 3.45623 13.4166 7.00006C13.4166 10.5439 10.5437 13.4167 6.99992 13.4167C3.45609 13.4167 0.583252 10.5439 0.583252 7.00006Z" fill="#466BFF"/>
<path fill-rule="evenodd" clip-rule="evenodd" d="M7.00008 2.91673C7.32225 2.91673 7.58341 3.1779 7.58341 3.50007V6.63955L9.59429 7.64498C9.88244 7.78906 9.99924 8.13945 9.85516 8.42761C9.71109 8.71576 9.36069 8.83256 9.07254 8.68848L6.73921 7.52182C6.54158 7.423 6.41675 7.22102 6.41675 7.00007V3.50007C6.41675 3.1779 6.67792 2.91673 7.00008 2.91673Z" fill="#466BFF"/>
</g>
<defs>
<clipPath id="clip0_597_566">
<rect width="14" height="14" fill="white"/>
</clipPath>
</defs>
</svg>
