<svg width="24" height="25" viewBox="0 0 24 25" fill="none" xmlns="http://www.w3.org/2000/svg">
<g clip-path="url(#clip0_641_680)">
<path fill-rule="evenodd" clip-rule="evenodd" d="M8.69231 8.05562C8.0645 8.05562 7.55556 8.56456 7.55556 9.19237V17.8078C7.55556 18.4356 8.0645 18.9445 8.69231 18.9445H17.3077C17.9355 18.9445 18.4444 18.4356 18.4444 17.8078V9.19237C18.4444 8.56456 17.9355 8.05562 17.3077 8.05562H8.69231ZM6 9.19237C6 7.70545 7.20539 6.50006 8.69231 6.50006H17.3077C18.7946 6.50006 20 7.70545 20 9.19237V17.8078C20 19.2947 18.7946 20.5001 17.3077 20.5001H8.69231C7.20539 20.5001 6 19.2947 6 17.8078V9.19237Z" fill="white"/>
<path fill-rule="evenodd" clip-rule="evenodd" d="M7.76173 6.00477C6.51518 6.00477 5.50471 7.01524 5.50471 8.26179V15.4382C5.50471 15.7298 5.62056 16.0095 5.82678 16.2157C6.12059 16.5095 6.12059 16.9859 5.82678 17.2797C5.53297 17.5735 5.0566 17.5735 4.76279 17.2797C4.27438 16.7913 4 16.1289 4 15.4382V8.26179C4 6.18421 5.68415 4.50006 7.76173 4.50006H14.9381C15.6288 4.50006 16.2912 4.77444 16.7796 5.26285C17.0735 5.55666 17.0735 6.03303 16.7796 6.32684C16.4858 6.62065 16.0095 6.62065 15.7156 6.32684C15.5094 6.12063 15.2297 6.00477 14.9381 6.00477H7.76173Z" fill="white"/>
</g>
<defs>
<clipPath id="clip0_641_680">
<rect width="16" height="16" fill="white" transform="translate(4 4.50006)"/>
</clipPath>
</defs>
</svg>
