<svg width="36" height="36" viewBox="0 0 36 36" fill="none" xmlns="http://www.w3.org/2000/svg">
<g clip-path="url(#clip0_740_783)">
<path d="M35.5 18.0001C35.5 27.665 27.665 35.5001 18 35.5001C8.33502 35.5001 0.5 27.665 0.5 18.0001C0.5 8.33508 8.33502 0.500061 18 0.500061C27.665 0.500061 35.5 8.33508 35.5 18.0001Z" fill="white" stroke="black"/>
<path d="M17.9315 24.6773L18.0893 24.8037L18.2459 24.6758L25.8765 18.4444L18.0857 30.1795L10.133 18.4318L17.9315 24.6773Z" fill="white" stroke="black" stroke-width="0.5"/>
<path d="M18.3379 29.7999V24.6008L25.8766 18.4444L18.3379 29.7999Z" fill="white" stroke="black" stroke-width="0.5"/>
<path d="M10.3888 15.7267L18.0886 5.06548L25.7884 15.7267L18.0886 21.6496L10.3888 15.7267Z" fill="white" stroke="black" stroke-width="0.5"/>
<path d="M25.7877 15.7267L18.3379 21.4573V5.41164L25.7877 15.7267Z" fill="white" stroke="black" stroke-width="0.5"/>
<path d="M10.5877 15.8795L18.1108 13.6993L25.5902 15.8789L18.0886 21.6494L10.5877 15.8795Z" fill="white" stroke="black" stroke-width="0.5"/>
<path d="M10.5877 15.8795L17.8601 13.772L17.8399 21.4581L10.5877 15.8795Z" fill="white" stroke="black" stroke-width="0.5"/>
</g>
<defs>
<clipPath id="clip0_740_783">
<rect width="36" height="36" fill="white"/>
</clipPath>
</defs>
</svg>
