<svg width="24" height="24" viewBox="0 0 24 24" fill="none" xmlns="http://www.w3.org/2000/svg">
<g clip-path="url(#clip0_427_2028)">
<path d="M23.7365 11.6741V11.5997C23.7365 11.4135 23.7554 11.1901 23.7554 10.9666C23.7742 10.5943 23.7554 10.315 23.7554 10.0171C23.7742 9.43994 23.5669 8.90001 23.2463 8.45317C23.0389 8.13666 22.7938 7.82015 22.5487 7.54088C22.3414 7.28022 22.0963 7.03818 21.8889 6.79614C21.6626 6.53549 21.4175 6.29345 21.1724 6.05141C20.324 5.17636 19.4567 4.31992 18.5895 3.44486C18.4198 3.27729 18.2501 3.12835 18.0993 2.9794C17.8542 2.71874 17.5714 2.62565 17.232 2.71874C16.7229 2.83045 16.4967 3.27729 16.5721 3.70551C16.591 3.87308 16.7041 4.04064 16.8172 4.15235C17.5714 4.93432 18.3255 5.66043 19.0985 6.42378C19.2305 6.55411 19.3248 6.74029 19.3248 6.92647V9.38408C19.3248 9.75645 19.4002 10.073 19.6076 10.3709C19.815 10.6874 20.0412 10.9666 20.3052 11.2459C20.7388 11.6927 21.2101 12.121 21.6626 12.5492C21.7192 12.605 21.7946 12.6423 21.8512 12.6981L21.8889 12.7354L22.0585 17.3527L21.9266 18.2091C21.8135 18.9539 21.1724 19.531 20.4183 19.5683C19.5133 19.6055 18.7403 18.9539 18.6837 18.0416L18.3632 15.1371C18.2312 13.4801 16.9303 12.1582 15.2901 11.9534V3.12835C15.2901 2.60704 15.1769 2.12296 14.9318 1.67612C14.649 1.19205 14.2908 0.782445 13.7818 0.503171C13.367 0.279752 12.9333 0.112188 12.4431 0.130806C12.4054 0.130806 12.3866 0.0935694 12.3489 0.0749512H3.05397C3.05397 0.0749512 2.97855 0.130806 2.94084 0.130806C2.43179 0.130806 1.9793 0.29837 1.54567 0.559026C1.26286 0.72659 1.01776 0.912773 0.81037 1.15481C0.565271 1.43408 0.395587 1.73198 0.282465 2.08572C0.20705 2.30914 0.131635 2.53256 0.131635 2.75598C0.112781 8.13666 0.093927 17.6878 0.0750732 21.8769C0.0750732 23.0127 1.01776 23.9249 2.16784 23.9249H13.1973C14.3474 23.9249 15.2901 22.994 15.2901 21.8583V13.8338C15.9311 14.0014 16.4213 14.5786 16.4778 15.3047L16.7984 18.2091C16.9303 20.0337 18.4952 21.4301 20.3052 21.4301H20.5314C22.1717 21.337 23.548 20.0896 23.7931 18.4698L23.9251 17.4458L23.7365 11.6741ZM12.8202 8.93725C12.8202 9.1979 12.7071 9.36547 12.5186 9.55165C12.2923 9.75645 12.0095 9.79369 11.7078 9.77507H7.71084C6.29681 9.77507 4.88278 9.79369 3.46875 9.77507C3.11053 9.77507 2.84658 9.62612 2.67689 9.30961C2.58262 9.14205 2.54491 8.93725 2.54491 8.73244V3.389C2.54491 3.10973 2.63918 2.84907 2.82772 2.66289C2.9597 2.53256 3.11053 2.43947 3.31792 2.42085C4.61883 2.30914 5.90088 2.38362 7.18294 2.38362C8.71009 2.365 10.2561 2.365 11.7833 2.38362C12.1226 2.38362 12.4431 2.47671 12.6505 2.7746C12.7259 2.88631 12.8202 3.07249 12.8202 3.24006C12.8202 5.13912 12.8202 7.0568 12.8202 8.93725Z" fill="black"/>
</g>
<defs>
<clipPath id="clip0_427_2028">
<rect width="23.85" height="23.85" fill="white" transform="translate(0.0750732 0.0749512)"/>
</clipPath>
</defs>
</svg>
