<svg width="120" height="120" viewBox="0 0 120 120" fill="none" xmlns="http://www.w3.org/2000/svg">
<path fill-rule="evenodd" clip-rule="evenodd" d="M62.4746 14.5833C38.8373 14.5833 19.6754 33.7451 19.6754 57.3824C19.6754 60.1438 17.4369 62.3824 14.6754 62.3824C11.914 62.3824 9.67545 60.1438 9.67545 57.3824C9.67545 28.2222 33.3144 4.58325 62.4746 4.58325C91.6347 4.58325 115.274 28.2222 115.274 57.3824C115.274 60.1438 113.035 62.3824 110.274 62.3824C107.512 62.3824 105.274 60.1438 105.274 57.3824C105.274 33.7451 86.1119 14.5833 62.4746 14.5833Z" fill="#191C1E"/>
<path fill-rule="evenodd" clip-rule="evenodd" d="M63.5033 54.0687C66.2647 54.0603 68.5101 56.2921 68.5185 59.0535C68.5257 61.4285 68.426 63.8232 68.2152 66.2326C66.6696 83.8983 59.3897 99.6993 48.3729 111.943C46.5258 113.996 43.3644 114.163 41.3116 112.316C39.2588 110.469 39.0921 107.307 40.9391 105.255C50.5545 94.5681 56.9033 80.7911 58.2532 65.361C58.4377 63.252 58.5249 61.1582 58.5186 59.0839C58.5102 56.3225 60.7419 54.0771 63.5033 54.0687Z" fill="#191C1E"/>
<path fill-rule="evenodd" clip-rule="evenodd" d="M79.1244 53.0685C81.8839 52.9637 84.2057 55.1158 84.3105 57.8752C84.4006 60.2485 84.3845 62.6453 84.2579 65.0605C83.3298 82.7694 76.6058 98.8148 66.023 111.436C64.2487 113.552 61.095 113.829 58.979 112.055C56.863 110.28 56.586 107.127 58.3603 105.011C67.5968 93.9951 73.461 80.005 74.2716 64.5372C74.3824 62.423 74.3964 60.3274 74.3177 58.2546C74.213 55.4952 76.365 53.1733 79.1244 53.0685Z" fill="#191C1E"/>
<path fill-rule="evenodd" clip-rule="evenodd" d="M92.1692 48.4743C94.9026 48.0817 97.4367 49.9792 97.8294 52.7126C98.1671 55.0634 98.4015 57.4488 98.5281 59.864C99.2326 73.3056 96.5155 86.1496 91.1341 97.5352C89.9541 100.032 86.9736 101.099 84.477 99.9191C81.9804 98.7391 80.9131 95.7586 82.0931 93.262C86.7849 83.3354 89.1575 72.1362 88.5418 60.3874C88.431 58.2732 88.2259 56.1877 87.931 54.1344C87.5383 51.4011 89.4359 48.867 92.1692 48.4743Z" fill="#191C1E"/>
<path fill-rule="evenodd" clip-rule="evenodd" d="M108.612 64.2496C111.328 64.7497 113.124 67.3567 112.624 70.0724C112.267 72.0132 111.839 73.9271 111.344 75.8118C110.642 78.4826 107.909 80.079 105.238 79.3774C102.567 78.6758 100.971 75.942 101.672 73.2712C102.104 71.627 102.477 69.9564 102.789 68.2614C103.29 65.5457 105.897 63.7495 108.612 64.2496Z" fill="#191C1E"/>
<path fill-rule="evenodd" clip-rule="evenodd" d="M47.8631 50.9648C50.6245 50.9648 52.8631 53.2034 52.8631 55.9648C52.8631 73.698 46.988 90.0733 37.0802 103.231C35.4191 105.437 32.2843 105.879 30.0783 104.218C27.8724 102.556 27.4307 99.4216 29.0918 97.2156C37.7392 85.7318 42.8631 71.4539 42.8631 55.9648C42.8631 53.2034 45.1016 50.9648 47.8631 50.9648Z" fill="#191C1E"/>
<path fill-rule="evenodd" clip-rule="evenodd" d="M32.289 51.7176C35.0257 52.0858 36.9458 54.6029 36.5775 57.3397C35.0183 68.928 30.9355 79.7174 24.9033 89.1324C23.4136 91.4576 20.3211 92.1348 17.996 90.6451C15.6708 89.1554 14.9936 86.0629 16.4833 83.7378C21.7477 75.521 25.307 66.1128 26.6669 56.0062C27.0351 53.2694 29.5522 51.3494 32.289 51.7176Z" fill="#191C1E"/>
<path fill-rule="evenodd" clip-rule="evenodd" d="M62.358 31.5776C48.1709 31.5776 36.6699 43.0786 36.6699 57.2657C36.6699 60.0271 34.4313 62.2657 31.6699 62.2657C28.9085 62.2657 26.6699 60.0271 26.6699 57.2657C26.6699 37.5557 42.648 21.5776 62.358 21.5776C69.4389 21.5776 76.0522 23.645 81.6091 27.2107C83.9332 28.702 84.6083 31.795 83.117 34.1192C81.6257 36.4433 78.5327 37.1184 76.2086 35.627C72.2148 33.0643 67.4676 31.5776 62.358 31.5776ZM85.1911 36.1629C87.4927 34.637 90.5954 35.2659 92.1213 37.5674C95.8654 43.2149 98.0461 49.9932 98.0461 57.2657C98.0461 60.0271 95.8075 62.2657 93.0461 62.2657C90.2846 62.2657 88.0461 60.0271 88.0461 57.2657C88.0461 52.0187 86.4782 47.153 83.7866 43.0931C82.2607 40.7915 82.8896 37.6888 85.1911 36.1629Z" fill="#191C1E"/>
<path fill-rule="evenodd" clip-rule="evenodd" d="M63.5356 47.1562C57.693 47.1562 52.9566 51.8926 52.9566 57.7352H42.9566C42.9566 46.3698 52.1702 37.1562 63.5356 37.1562C74.9011 37.1562 84.1146 46.3698 84.1146 57.7352H74.1146C74.1146 51.8926 69.3782 47.1562 63.5356 47.1562Z" fill="#191C1E"/>
<path d="M18.3516 97.2634C18.3516 99.6846 16.3888 101.647 13.9676 101.647C11.5463 101.647 9.58354 99.6846 9.58354 97.2634C9.58354 94.8422 11.5463 92.8794 13.9676 92.8794C16.3888 92.8794 18.3516 94.8422 18.3516 97.2634Z" fill="#191C1E"/>
</svg>
