<svg width="36" height="36" viewBox="0 0 36 36" fill="none" xmlns="http://www.w3.org/2000/svg">
<rect x="0.5" y="0.500061" width="35" height="35" rx="17.5" fill="white"/>
<rect x="0.5" y="0.500061" width="35" height="35" rx="17.5" stroke="black"/>
<path fill-rule="evenodd" clip-rule="evenodd" d="M14.183 9.53844L13.5991 9.18381L13.0151 9.53844L10.7342 10.9237L8.43189 12.2708L7.87 12.5995L7.87507 13.2505L7.89638 15.9835L7.87507 18.7165L7.87 19.3675L8.43189 19.6962L10.7342 21.0434L13.0151 22.4286L13.5991 22.7832L14.183 22.4286L16.464 21.0434L18.7663 19.6962L18.7629 19.6905L21.4199 18.1737L21.4331 18.1661L21.4461 18.1582L23.151 17.1229L24.8559 18.1582L24.8638 18.163L24.8717 18.1676L26.62 19.1906L26.6037 21.2814L26.6037 21.2902L26.6037 21.2989L26.62 23.3897L24.8717 24.4127L24.8638 24.4173L24.8559 24.4221L23.151 25.4574L21.4461 24.4221L21.4383 24.4173L21.4303 24.4127L19.682 23.3897L19.6912 22.2085L17.4413 22.191L17.427 24.0231L17.4219 24.6741L17.9838 25.0029L20.2861 26.35L22.5671 27.7352L23.151 28.0899L23.735 27.7352L26.0159 26.35L28.3182 25.0029L28.8801 24.6741L28.875 24.0231L28.8537 21.2902L28.875 18.5572L28.8801 17.9062L28.3182 17.5774L26.0159 16.2303L23.735 14.8451L23.151 14.4905L22.5671 14.8451L20.2912 16.2272L17.2548 17.9605L17.2605 17.9705L15.3198 19.106L15.3118 19.1107L15.304 19.1154L13.5991 20.1508L11.8942 19.1154L11.8863 19.1107L11.8784 19.106L10.1301 18.083L10.1464 15.9923L10.1464 15.9835L10.1464 15.9747L10.1301 13.884L11.8784 12.861L11.8863 12.8563L11.8942 12.8516L13.5991 11.8162L15.304 12.8516L15.3118 12.8563L15.3198 12.861L17.0681 13.884L17.0589 15.0651L19.3088 15.0827L19.3231 13.2505L19.3282 12.5995L18.7663 12.2708L16.464 10.9236L14.183 9.53844Z" fill="black"/>
</svg>
