<svg width="24" height="24" viewBox="0 0 24 24" fill="none" xmlns="http://www.w3.org/2000/svg">
<path d="M12 22C17.5228 22 22 17.5228 22 12C22 6.47715 17.5228 2 12 2C6.47715 2 2 6.47715 2 12C2 17.5228 6.47715 22 12 22Z" fill="#7EE0FF"/>
<path fill-rule="evenodd" clip-rule="evenodd" d="M12 5C12.5523 5 13 5.44772 13 6V11.382L16.4472 13.1056C16.9412 13.3526 17.1414 13.9532 16.8944 14.4472C16.6474 14.9412 16.0468 15.1414 15.5528 14.8944L11.5528 12.8944C11.214 12.725 11 12.3788 11 12V6C11 5.44772 11.4477 5 12 5Z" fill="black"/>
</svg>
