<svg width="24" height="24" viewBox="0 0 24 24" fill="none" xmlns="http://www.w3.org/2000/svg">
<path fill-rule="evenodd" clip-rule="evenodd" d="M5 4C3.89543 4 3 4.89543 3 6V18C3 19.1046 3.89543 20 5 20H19C20.1044 20 21 19.1044 21 17.9997V9.99998C21 9.44771 20.5523 9 20 9H9C7.34315 9 6 7.65685 6 6C6 5.44772 6.44772 5 7 5C7.55228 5 8 5.44772 8 6C8 6.55228 8.44772 7 9 7H20C21.6568 7 23 8.34312 23 9.99998V17.9997C23 20.2087 21.2093 22 19 22H5C2.79086 22 1 20.2091 1 18V6C1 3.79086 2.79086 2 5 2H20C21.6569 2 23 3.34315 23 5C23 5.55228 22.5523 6 22 6C21.4477 6 21 5.55228 21 5C21 4.44772 20.5523 4 20 4H5Z" fill="black"/>
<path fill-rule="evenodd" clip-rule="evenodd" d="M17 15C17.5523 15 18 14.5523 18 14C18 13.4477 17.5523 13 17 13C16.4477 13 16 13.4477 16 14C16 14.5523 16.4477 15 17 15Z" fill="black"/>
<path fill-rule="evenodd" clip-rule="evenodd" d="M15 14C15 12.8954 15.8954 12 17 12C18.1046 12 19 12.8954 19 14C19 15.1046 18.1046 16 17 16C15.8954 16 15 15.1046 15 14Z" fill="black"/>
</svg>
